<svg xmlns="http://www.w3.org/2000/svg" class="graphdiagram" viewBox="-300 -150 600 300"><g class="layer relationships"><g class="related-pair"><g class="relationship" transform="translate(-6.00323224067688,-10.005387306213379) rotate(-34.07719607520663)"><path class="relationship" d="M 45.47475218302916 1 L 122.86235056466384 1 L 122.86235056466384 4 L 130.86235056466384 0 L 122.86235056466384 -4 L 122.86235056466384 -1 L 45.47475218302916 -1 Z" fill="rgba(0, 0, 0, 0.298039)" stroke="rgb(51, 51, 51)" stroke-width="0px"/><text class="type" text-anchor="middle" baseline-shift="30%" alignment-baseline="alphabetic" x="84.1685513738465" y="0" font-size="14px" font-family="'Helvetica Neue', Helvetica, Arial, sans-serif">SERVES</text></g></g><g class="related-pair"><g class="relationship" transform="translate(-6.00323224067688,-10.005387306213379) rotate(-143.66611871217881)"><path class="relationship" d="M 45.47475218302916 1 L 159.68174441597105 1 L 159.68174441597105 4 L 167.68174441597105 0 L 159.68174441597105 -4 L 159.68174441597105 -1 L 45.47475218302916 -1 Z" fill="rgba(0, 0, 0, 0.298039)" stroke="rgb(51, 51, 51)" stroke-width="0px"/><text class="type" text-anchor="middle" baseline-shift="30%" alignment-baseline="alphabetic" transform="rotate(180)" x="-102.5782482995001" y="0" font-size="14px" font-family="'Helvetica Neue', Helvetica, Arial, sans-serif">IS_LOCATED_IN</text></g></g><g class="related-pair"><g class="relationship" transform="translate(-124.06680583953857,113.0608777999878) rotate(-46.18853807677242)"><path class="relationship" d="M 33.78774850506957 1 L 117.06648335290691 1 L 117.06648335290691 4 L 125.06648335290691 0 L 117.06648335290691 -4 L 117.06648335290691 -1 L 33.78774850506957 -1 Z" fill="rgba(0, 0, 0, 0.298039)" stroke="rgb(51, 51, 51)" stroke-width="0px"/><text class="type" text-anchor="middle" baseline-shift="30%" alignment-baseline="alphabetic" x="75.42711592898824" y="0" font-size="14px" font-family="'Helvetica Neue', Helvetica, Arial, sans-serif">LIKES</text></g></g><g class="related-pair"><g class="relationship" transform="translate(113.06088542938232,113.0608777999878) rotate(-134.05305036321926)"><path class="relationship" d="M 33.78774850506957 1 L 117.7606697475384 1 L 117.7606697475384 4 L 125.7606697475384 0 L 117.7606697475384 -4 L 117.7606697475384 -1 L 33.78774850506957 -1 Z" fill="rgba(0, 0, 0, 0.298039)" stroke="rgb(51, 51, 51)" stroke-width="0px"/><text class="type" text-anchor="middle" baseline-shift="30%" alignment-baseline="alphabetic" transform="rotate(180)" x="-75.77420912630399" y="0" font-size="14px" font-family="'Helvetica Neue', Helvetica, Arial, sans-serif">LIKES</text></g></g><g class="related-pair"><g class="relationship" transform="translate(-124.06680583953857,113.0608777999878) rotate(0)"><path class="relationship" d="M 33.78774850506957 1 L 195.33994276385133 1 L 195.33994276385133 4 L 203.33994276385133 0 L 195.33994276385133 -4 L 195.33994276385133 -1 L 33.78774850506957 -1 Z" fill="rgba(0, 0, 0, 0.298039)" stroke="rgb(51, 51, 51)" stroke-width="0px"/><text class="type" text-anchor="middle" baseline-shift="30%" alignment-baseline="alphabetic" x="114.56384563446045" y="0" font-size="14px" font-family="'Helvetica Neue', Helvetica, Arial, sans-serif">IS_FRIEND_OF</text></g></g></g><g class="layer nodes"><circle class="node node-id-0" r="40.14141883976172" fill="rgb(247, 247, 249)" stroke="rgba(0, 0, 0, 0.298039)" stroke-width="0.666666686534882px" cx="-6.00323224067688" cy="-10.005387306213379"/><g class="caption"><text class="caption node" text-anchor="middle" alignment-baseline="central" x="-6.00323224067688" y="-10.005387306213379" font-size="14px" font-family="'Helvetica Neue', Helvetica, Arial, sans-serif">Restaurant</text></g><circle class="node node-id-1" r="19.497001389821172" fill="rgb(247, 247, 249)" stroke="rgba(0, 0, 0, 0.298039)" stroke-width="0.666666686534882px" cx="-161.0867395401001" cy="-124.06680226325989"/><circle class="node node-id-2" r="28.087780209395905" fill="rgb(247, 247, 249)" stroke="rgba(0, 0, 0, 0.298039)" stroke-width="0.666666686534882px" cx="130.07003486156464" cy="-102.05495309829712"/><g class="caption"><text class="caption node" text-anchor="middle" alignment-baseline="central" x="-161.0867395401001" y="-124.06680226325989" font-size="14px" font-family="'Helvetica Neue', Helvetica, Arial, sans-serif">City</text></g><g class="caption"><text class="caption node" text-anchor="middle" alignment-baseline="central" x="130.07003486156464" y="-102.05495309829712" font-size="14px" font-family="'Helvetica Neue', Helvetica, Arial, sans-serif">Cusine</text></g><circle class="node node-id-3" r="28.45441516180213" fill="rgb(247, 247, 249)" stroke="rgba(0, 0, 0, 0.298039)" stroke-width="0.666666686534882px" cx="-124.06680583953857" cy="113.0608777999878"/><g class="caption"><text class="caption node" text-anchor="middle" alignment-baseline="central" x="-124.06680583953857" y="113.0608777999878" font-size="14px" font-family="'Helvetica Neue', Helvetica, Arial, sans-serif">Person</text></g><circle class="node node-id-4" r="28.45441516180213" fill="rgb(247, 247, 249)" stroke="rgba(0, 0, 0, 0.298039)" stroke-width="0.666666686534882px" cx="113.06088542938232" cy="113.0608777999878"/><g class="caption"><text class="caption node" text-anchor="middle" alignment-baseline="central" x="113.06088542938232" y="113.0608777999878" font-size="14px" font-family="'Helvetica Neue', Helvetica, Arial, sans-serif">Person</text></g></g><g class="layer properties"/><g class="layer overlay"><circle class="node overlay" r="40.47475218302916" stroke="none" fill="rgba(255, 255, 255, 0)" cx="-6.00323224067688" cy="-10.005387306213379"/><circle class="node ring" r="45.47475218302916" fill="none" stroke="rgba(255, 255, 255, 0)" stroke-width="10px" cx="-6.00323224067688" cy="-10.005387306213379"/><circle class="node overlay" r="19.830334733088613" stroke="none" fill="rgba(255, 255, 255, 0)" cx="-161.0867395401001" cy="-124.06680226325989"/><circle class="node ring" r="24.830334733088613" fill="none" stroke="rgba(255, 255, 255, 0)" stroke-width="10px" cx="-161.0867395401001" cy="-124.06680226325989"/><circle class="node overlay" r="28.421113552663346" stroke="none" fill="rgba(255, 255, 255, 0)" cx="130.07003486156464" cy="-102.05495309829712"/><circle class="node ring" r="33.42111355266334" fill="none" stroke="rgba(255, 255, 255, 0)" stroke-width="10px" cx="130.07003486156464" cy="-102.05495309829712"/><circle class="node overlay" r="28.787748505069573" stroke="none" fill="rgba(255, 255, 255, 0)" cx="-124.06680583953857" cy="113.0608777999878"/><circle class="node ring" r="33.78774850506957" fill="none" stroke="rgba(255, 255, 255, 0)" stroke-width="10px" cx="-124.06680583953857" cy="113.0608777999878"/><circle class="node overlay" r="28.787748505069573" stroke="none" fill="rgba(255, 255, 255, 0)" cx="113.06088542938232" cy="113.0608777999878"/><circle class="node ring" r="33.78774850506957" fill="none" stroke="rgba(255, 255, 255, 0)" stroke-width="10px" cx="113.06088542938232" cy="113.0608777999878"/><path class="relationship overlay" fill="rgba(255, 255, 255, 0)" stroke="rgba(255, 255, 255, 0)" stroke-width="10px" transform="translate(-6.00323224067688,-10.005387306213379) rotate(-34.07719607520663)" d="M 45.47475218302916 1 L 122.86235056466384 1 L 122.86235056466384 4 L 130.86235056466384 0 L 122.86235056466384 -4 L 122.86235056466384 -1 L 45.47475218302916 -1 Z"/><path class="relationship overlay" fill="rgba(255, 255, 255, 0)" stroke="rgba(255, 255, 255, 0)" stroke-width="10px" transform="translate(-6.00323224067688,-10.005387306213379) rotate(-143.66611871217881)" d="M 45.47475218302916 1 L 159.68174441597105 1 L 159.68174441597105 4 L 167.68174441597105 0 L 159.68174441597105 -4 L 159.68174441597105 -1 L 45.47475218302916 -1 Z"/><path class="relationship overlay" fill="rgba(255, 255, 255, 0)" stroke="rgba(255, 255, 255, 0)" stroke-width="10px" transform="translate(-124.06680583953857,113.0608777999878) rotate(-46.18853807677242)" d="M 33.78774850506957 1 L 117.06648335290691 1 L 117.06648335290691 4 L 125.06648335290691 0 L 117.06648335290691 -4 L 117.06648335290691 -1 L 33.78774850506957 -1 Z"/><path class="relationship overlay" fill="rgba(255, 255, 255, 0)" stroke="rgba(255, 255, 255, 0)" stroke-width="10px" transform="translate(113.06088542938232,113.0608777999878) rotate(-134.05305036321926)" d="M 33.78774850506957 1 L 117.7606697475384 1 L 117.7606697475384 4 L 125.7606697475384 0 L 117.7606697475384 -4 L 117.7606697475384 -1 L 33.78774850506957 -1 Z"/><path class="relationship overlay" fill="rgba(255, 255, 255, 0)" stroke="rgba(255, 255, 255, 0)" stroke-width="10px" transform="translate(-124.06680583953857,113.0608777999878) rotate(0)" d="M 33.78774850506957 1 L 195.33994276385133 1 L 195.33994276385133 4 L 203.33994276385133 0 L 195.33994276385133 -4 L 195.33994276385133 -1 L 33.78774850506957 -1 Z"/></g></svg>